<svg width="42" height="43" viewBox="0 0 42 43" fill="none" xmlns="http://www.w3.org/2000/svg">
<g opacity="0.9">
<path d="M22.1874 2.05225L22.2564 1.05463L20.901 0.960897L21.2143 2.28288L22.1874 2.05225ZM39.4015 15.0012L39.7465 15.9398L40.6836 15.5952L40.3406 14.6576L39.4015 15.0012ZM22.2577 2.34886L23.2307 2.11823L23.2307 2.11822L22.2577 2.34886ZM22.744 3.25477L23.4739 2.57118L23.4739 2.57118L22.744 3.25477ZM23.1099 3.64543L22.38 4.32902V4.32902L23.1099 3.64543ZM23.4986 5.54552L24.4383 5.88754V5.88754L23.4986 5.54552ZM23.4309 5.73163L22.4912 5.38961V5.38961L23.4309 5.73163ZM24.4198 7.85235L24.7618 6.91266L24.4198 7.85235ZM25.499 9.58427L24.5048 9.47723L25.499 9.58427ZM25.2963 11.4673L26.2905 11.5744V11.5744L25.2963 11.4673ZM25.8251 13.0486L25.0952 13.7322V13.7322L25.8251 13.0486ZM27.4525 14.7862L28.1824 14.1026L28.1824 14.1026L27.4525 14.7862ZM29.3043 15.3802L29.1083 14.3996L29.3043 15.3802ZM33.5142 14.5386L33.7102 15.5192L33.7102 15.5192L33.5142 14.5386ZM34.2033 14.5219L34.0548 15.5108L34.2033 14.5219ZM38.313 15.1391L38.4615 14.1502H38.4615L38.313 15.1391ZM39.3001 15.0384L38.9551 14.0999L38.9551 14.0999L39.3001 15.0384ZM9.80052 38.2698L9.24423 39.1008L9.77997 39.4594L10.3278 39.1195L9.80052 38.2698ZM11.3023 4.42755L11.9836 3.69556L11.4551 3.20363L10.8219 3.55052L11.3023 4.42755ZM12.7039 5.73209L13.3852 5.0001L13.3852 5.0001L12.7039 5.73209ZM13.1031 6.24961L13.984 5.77638L13.984 5.77637L13.1031 6.24961ZM14.01 7.93778L13.129 8.41102L13.1595 8.46774L13.197 8.52008L14.01 7.93778ZM15.7632 10.3856L16.5762 9.80326V9.80326L15.7632 10.3856ZM16.2544 14.2048L15.3129 14.5419L15.3129 14.5419L16.2544 14.2048ZM16.656 15.3262L17.5974 14.989V14.989L16.656 15.3262ZM15.8276 17.6999L15.3003 16.8502L15.8276 17.6999ZM14.1755 18.7251L14.7028 19.5748L14.7028 19.5748L14.1755 18.7251ZM13.8674 18.9605L14.5487 19.6925L14.5487 19.6925L13.8674 18.9605ZM11.8827 20.8078L11.2014 20.0758L11.8827 20.8078ZM9.57298 22.9576L10.2543 23.6896L9.57298 22.9576ZM9.00407 24.9404L8.0383 25.1998L9.00407 24.9404ZM9.60658 27.1836L10.5723 26.9242L9.60658 27.1836ZM10.1755 28.1288L9.49417 28.8607L9.49417 28.8607L10.1755 28.1288ZM11.5265 29.3862L12.2078 28.6543L12.2078 28.6542L11.5265 29.3862ZM12.0468 30.1759L11.1053 30.5131L11.1053 30.5131L12.0468 30.1759ZM12.9463 32.6878L13.8878 32.3506L12.9463 32.6878ZM13.4651 34.1362L14.4065 33.799V33.799L13.4651 34.1362ZM12.6367 36.5099L13.1639 37.3596H13.1639L12.6367 36.5099ZM20.3332 24.0246L21.0059 24.7645L20.3332 24.0246ZM21.9417 22.5623L21.269 21.8224L21.9417 22.5623ZM20.0658 26.6872L19.2594 27.2785H19.2594L20.0658 26.6872ZM21.0291 28.0008L21.8355 27.4094L21.8355 27.4094L21.0291 28.0008ZM21.392 29.494L22.3799 29.6492L21.392 29.494ZM20.9488 32.3147L19.9609 32.1594L20.9488 32.3147ZM21.0189 33.0291L21.9577 32.6848L21.9577 32.6848L21.0189 33.0291ZM22.8809 33.8694L23.244 34.8011L23.244 34.8011L22.8809 33.8694ZM25.3385 32.9119L25.7015 33.8437L25.7015 33.8437L25.3385 32.9119ZM26.2816 32.15L25.447 31.5992L25.447 31.5992L26.2816 32.15ZM27.7259 29.9617L28.5605 30.5126L28.5605 30.5126L27.7259 29.9617ZM27.9399 29.6914L27.2124 29.0054L27.2123 29.0054L27.9399 29.6914ZM29.994 27.5129L30.7216 28.1989V28.1989L29.994 27.5129ZM29.6655 24.4884L29.1021 25.3146L29.1021 25.3146L29.6655 24.4884ZM29.0812 24.09L29.6446 23.2638L29.6224 23.2487L29.5995 23.2348L29.0812 24.09ZM27.4685 23.1126L27.9868 22.2574L27.9868 22.2574L27.4685 23.1126ZM26.8751 22.8727L26.6535 23.8479L26.8751 22.8727ZM24.6712 22.3718L24.3812 23.3289L24.4151 23.3391L24.4496 23.347L24.6712 22.3718ZM23.8671 22.1282L24.1571 21.1711L24.1571 21.1711L23.8671 22.1282ZM22.1184 3.04986C29.654 3.57099 35.971 8.53546 38.4623 15.3448L40.3406 14.6576C37.5851 7.12629 30.5996 1.63161 22.2564 1.05463L22.1184 3.04986ZM21.2143 2.28288L21.2846 2.57949L23.2307 2.11822L23.1604 1.82161L21.2143 2.28288ZM21.2846 2.57949C21.4052 3.08828 21.6567 3.55672 22.0142 3.93836L23.4739 2.57118C23.3547 2.44397 23.2709 2.28782 23.2307 2.11823L21.2846 2.57949ZM22.0142 3.93835L22.38 4.32902L23.8398 2.96184L23.4739 2.57118L22.0142 3.93835ZM22.38 4.32902C22.5997 4.56352 22.6688 4.90158 22.559 5.2035L24.4383 5.88754C24.806 4.87743 24.5746 3.7464 23.8398 2.96184L22.38 4.32902ZM22.559 5.2035L22.4912 5.38961L24.3706 6.07365L24.4383 5.88754L22.559 5.2035ZM22.4912 5.38961C21.9898 6.76729 22.7001 8.29061 24.0778 8.79204L24.7618 6.91266C24.4221 6.78901 24.247 6.41337 24.3706 6.07365L22.4912 5.38961ZM24.0778 8.79204C24.3608 8.89504 24.537 9.17782 24.5048 9.47723L26.4933 9.6913C26.624 8.47709 25.9094 7.33034 24.7618 6.91266L24.0778 8.79204ZM24.5048 9.47723L24.302 11.3603L26.2905 11.5744L26.4933 9.6913L24.5048 9.47723ZM24.302 11.3603C24.2085 12.2287 24.4981 13.0947 25.0952 13.7322L26.5549 12.365C26.3559 12.1525 26.2594 11.8638 26.2905 11.5744L24.302 11.3603ZM25.0952 13.7322L26.7226 15.4698L28.1824 14.1026L26.5549 12.365L25.0952 13.7322ZM26.7226 15.4698C27.4321 16.2273 28.4827 16.5643 29.5004 16.3608L29.1083 14.3996C28.769 14.4674 28.4189 14.3551 28.1824 14.1026L26.7226 15.4698ZM29.5004 16.3608L33.7102 15.5192L33.3181 13.558L29.1083 14.3996L29.5004 16.3608ZM33.7102 15.5192C33.8237 15.4965 33.9403 15.4937 34.0548 15.5108L34.3518 13.533C34.0084 13.4815 33.6586 13.4899 33.3181 13.558L33.7102 15.5192ZM34.0548 15.5108L38.1645 16.128L38.4615 14.1502L34.3518 13.533L34.0548 15.5108ZM38.1645 16.128C38.6629 16.2029 39.1722 16.1509 39.6452 15.977L38.9551 14.0999C38.7974 14.1578 38.6276 14.1751 38.4615 14.1502L38.1645 16.128ZM39.6452 15.977L39.7465 15.9398L39.0564 14.0626L38.9551 14.0999L39.6452 15.977ZM10.3568 37.4388C5.31633 34.0645 2.00122 28.3214 2.00122 21.8045H0.0012207C0.0012207 29.0167 3.67282 35.3711 9.24423 39.1008L10.3568 37.4388ZM2.00122 21.8045C2.00122 14.6911 5.95148 8.49895 11.7827 5.30458L10.8219 3.55052C4.37568 7.08175 0.0012207 13.9315 0.0012207 21.8045H2.00122ZM13.3852 5.0001L11.9836 3.69556L10.621 5.15954L12.0225 6.46408L13.3852 5.0001ZM13.984 5.77637C13.8283 5.48652 13.626 5.22427 13.3852 5.0001L12.0225 6.46408C12.1028 6.5388 12.1703 6.62622 12.2222 6.72284L13.984 5.77637ZM14.8909 7.46455L13.984 5.77638L12.2222 6.72284L13.129 8.41102L14.8909 7.46455ZM16.5762 9.80326L14.823 7.35549L13.197 8.52008L14.9502 10.9679L16.5762 9.80326ZM17.1373 11.5501C17.1373 10.9235 16.9411 10.3127 16.5762 9.80326L14.9502 10.9679C15.0719 11.1377 15.1373 11.3413 15.1373 11.5501H17.1373ZM17.1373 13.5305V11.5501H15.1373V13.5305H17.1373ZM17.1958 13.8676C17.1571 13.7594 17.1373 13.6454 17.1373 13.5305H15.1373C15.1373 13.8752 15.1967 14.2174 15.3129 14.5419L17.1958 13.8676ZM17.5974 14.989L17.1958 13.8676L15.3129 14.5419L15.7145 15.6634L17.5974 14.989ZM16.3548 18.5496C17.5565 17.804 18.0742 16.3204 17.5974 14.989L15.7145 15.6634C15.8735 16.1072 15.7009 16.6017 15.3003 16.8502L16.3548 18.5496ZM14.7028 19.5748L16.3548 18.5496L15.3003 16.8502L13.6483 17.8754L14.7028 19.5748ZM14.5487 19.6925C14.5961 19.6484 14.6477 19.6089 14.7028 19.5748L13.6483 17.8754C13.4831 17.9778 13.3283 18.0961 13.1861 18.2285L14.5487 19.6925ZM12.564 21.5398L14.5487 19.6925L13.1861 18.2285L11.2014 20.0758L12.564 21.5398ZM10.2543 23.6896L12.564 21.5398L11.2014 20.0758L8.89166 22.2256L10.2543 23.6896ZM9.96984 24.681C9.87378 24.3233 9.98322 23.9419 10.2543 23.6896L8.89166 22.2256C8.07846 22.9825 7.75012 24.1269 8.0383 25.1998L9.96984 24.681ZM10.5723 26.9242L9.96984 24.681L8.0383 25.1998L8.64081 27.443L10.5723 26.9242ZM10.8568 27.3968C10.7196 27.269 10.621 27.1053 10.5723 26.9242L8.64081 27.443C8.78672 27.9862 9.08243 28.4775 9.49417 28.8607L10.8568 27.3968ZM12.2078 28.6542L10.8568 27.3968L9.49417 28.8607L10.8452 30.1182L12.2078 28.6542ZM12.9882 29.8388C12.8265 29.3872 12.5589 28.981 12.2078 28.6543L10.8452 30.1182C10.9622 30.2272 11.0514 30.3626 11.1053 30.5131L12.9882 29.8388ZM13.8878 32.3506L12.9882 29.8388L11.1053 30.5131L12.0049 33.0249L13.8878 32.3506ZM14.4065 33.799L13.8878 32.3506L12.0049 33.0249L12.5236 34.4734L14.4065 33.799ZM13.1639 37.3596C14.3656 36.614 14.8833 35.1304 14.4065 33.799L12.5236 34.4734C12.6825 34.9172 12.51 35.4117 12.1094 35.6602L13.1639 37.3596ZM10.3278 39.1195L13.1639 37.3596L12.1094 35.6602L9.27327 37.4201L10.3278 39.1195ZM21.0059 24.7645L22.6144 23.3023L21.269 21.8224L19.6606 23.2846L21.0059 24.7645ZM20.8722 26.0958C20.5696 25.6832 20.6273 25.1087 21.0059 24.7645L19.6606 23.2846C18.5247 24.3172 18.3516 26.0406 19.2594 27.2785L20.8722 26.0958ZM21.8355 27.4094L20.8722 26.0958L19.2594 27.2785L20.2227 28.5921L21.8355 27.4094ZM22.3799 29.6492C22.5039 28.8599 22.308 28.0537 21.8355 27.4094L20.2227 28.5921C20.3802 28.8069 20.4455 29.0756 20.4042 29.3387L22.3799 29.6492ZM21.9367 32.4699L22.3799 29.6492L20.4042 29.3387L19.9609 32.1594L21.9367 32.4699ZM21.9577 32.6848C21.9326 32.6161 21.9253 32.5422 21.9367 32.4699L19.9609 32.1594C19.8968 32.5676 19.9377 32.9854 20.08 33.3733L21.9577 32.6848ZM22.5179 32.9376C22.2933 33.0251 22.0407 32.9111 21.9577 32.6848L20.08 33.3733C20.5486 34.6514 21.9755 35.2953 23.244 34.8011L22.5179 32.9376ZM24.9755 31.9801L22.5179 32.9376L23.244 34.8011L25.7015 33.8437L24.9755 31.9801ZM25.447 31.5992C25.333 31.7719 25.1683 31.905 24.9754 31.9801L25.7015 33.8437C26.28 33.6183 26.7743 33.219 27.1162 32.7009L25.447 31.5992ZM26.8913 29.4109L25.447 31.5992L27.1162 32.7009L28.5605 30.5126L26.8913 29.4109ZM27.2123 29.0054C27.0939 29.1311 26.9864 29.2667 26.8913 29.4109L28.5605 30.5126C28.5922 30.4645 28.628 30.4193 28.6675 30.3774L27.2123 29.0054ZM29.2664 26.8269L27.2124 29.0054L28.6675 30.3774L30.7216 28.1989L29.2664 26.8269ZM29.1021 25.3146C29.6102 25.661 29.6882 26.3795 29.2664 26.8269L30.7216 28.1989C31.987 26.8567 31.7529 24.7013 30.2288 23.6622L29.1021 25.3146ZM28.5179 24.9163L29.1021 25.3146L30.2288 23.6622L29.6446 23.2638L28.5179 24.9163ZM26.9502 23.9678L28.5629 24.9452L29.5995 23.2348L27.9868 22.2574L26.9502 23.9678ZM26.6535 23.8479C26.7582 23.8717 26.8583 23.9122 26.9502 23.9678L27.9868 22.2574C27.7113 22.0905 27.4108 21.969 27.0967 21.8976L26.6535 23.8479ZM24.4496 23.347L26.6535 23.8479L27.0967 21.8976L24.8928 21.3967L24.4496 23.347ZM23.577 23.0852L24.3812 23.3289L24.9612 21.4148L24.1571 21.1711L23.577 23.0852ZM22.6144 23.3023C22.8747 23.0656 23.2403 22.9831 23.577 23.0852L24.1571 21.1711C23.1468 20.865 22.0501 21.1123 21.269 21.8224L22.6144 23.3023Z" fill="white"/>
<circle cx="20.8012" cy="21.8045" r="19.8" stroke="white" stroke-width="2"/>
</g>
</svg>
